<?xml version="1.0"?>
<svg xmlns="http://www.w3.org/2000/svg" xmlns:xlink="http://www.w3.org/1999/xlink" version="1.1" id="Capa_1" x="0px" y="0px" width="512px" height="512px" viewBox="0 0 230.773 230.774" style="enable-background:new 0 0 230.773 230.774;" xml:space="preserve"><g><g>
	<g>
		<polygon points="72.448,174.648 72.448,137.463 40.249,156.059   " data-original="#000000" class="active-path" data-old_color="#000000" fill="#3F3E56"/>
		<polygon points="72.448,128.171 72.448,90.993 40.249,109.583   " data-original="#000000" class="active-path" data-old_color="#000000" fill="#3F3E56"/>
		<polygon points="77.818,90.993 77.818,128.171 110.022,109.583   " data-original="#000000" class="active-path" data-old_color="#000000" fill="#3F3E56"/>
		<polygon points="112.706,197.883 112.706,160.705 80.499,179.299   " data-original="#000000" class="active-path" data-old_color="#000000" fill="#3F3E56"/>
		<polygon points="112.706,151.407 112.706,114.234 80.499,132.823   " data-original="#000000" class="active-path" data-old_color="#000000" fill="#3F3E56"/>
		<polygon points="112.706,104.927 112.706,67.751 80.499,86.347   " data-original="#000000" class="active-path" data-old_color="#000000" fill="#3F3E56"/>
		<polygon points="118.073,67.751 118.073,104.927 150.275,86.347   " data-original="#000000" class="active-path" data-old_color="#000000" fill="#3F3E56"/>
		<polygon points="118.073,151.407 150.275,132.823 118.073,114.234   " data-original="#000000" class="active-path" data-old_color="#000000" fill="#3F3E56"/>
		<polygon points="118.073,197.883 150.275,179.299 118.073,160.705   " data-original="#000000" class="active-path" data-old_color="#000000" fill="#3F3E56"/>
		<polygon points="152.958,128.171 152.958,90.993 120.757,109.583   " data-original="#000000" class="active-path" data-old_color="#000000" fill="#3F3E56"/>
		<polygon points="158.325,128.171 190.527,109.583 158.325,90.993   " data-original="#000000" class="active-path" data-old_color="#000000" fill="#3F3E56"/>
		<polygon points="158.325,174.648 190.527,156.059 158.325,137.463   " data-original="#000000" class="active-path" data-old_color="#000000" fill="#3F3E56"/>
		<polygon points="32.199,151.407 32.199,114.234 0,132.823   " data-original="#000000" class="active-path" data-old_color="#000000" fill="#3F3E56"/>
		<polygon points="198.578,114.234 198.578,151.407 230.773,132.823   " data-original="#000000" class="active-path" data-old_color="#000000" fill="#3F3E56"/>
		<polygon points="173.091,32.89 140.877,51.477 173.079,70.072   " data-original="#000000" class="active-path" data-old_color="#000000" fill="#3F3E56"/>
		<polygon points="57.701,32.89 57.692,70.083 89.894,51.482   " data-original="#000000" class="active-path" data-old_color="#000000" fill="#3F3E56"/>
	</g>
</g></g> </svg>
